<?xml version="1.0" encoding="UTF-8" standalone="no"?>
<!DOCTYPE svg PUBLIC "-//W3C//DTD SVG 1.0//EN" "http://www.w3.org/TR/2001/REC-SVG-20010904/DTD/svg10.dtd" [
<!ATTLIST svg xmlns:xlink CDATA #FIXED "http://www.w3.org/1999/xlink">
]>
<!-- Generated by Graphviz version 2.20.2 (Tue Mar &#160;2 21:46:26 UTC 2010)
 -->
<!-- Title: G Pages: 1 -->
<svg xmlns="http://www.w3.org/2000/svg" xmlns:xlink="http://www.w3.org/1999/xlink" width="634pt" height="736pt">
<g id="viewport" class="graph" transform="scale(1 1) rotate(0) translate(4 732)">
<title>G</title>
<polygon style="fill:white;stroke:white;" points="-4,4 -4,-732 630,-732 630,4 -4,4"/>
<g id="cluster2" class="cluster"><title>cluster_Oktopus</title>
<polyline style="fill:none;stroke:gray;" points="23,-52 606,-52 "/>
<path style="fill:none;stroke:gray;" d="M606,-52C612,-52 618,-58 618,-64"/>
<polyline style="fill:none;stroke:gray;" points="618,-64 618,-708 "/>
<path style="fill:none;stroke:gray;" d="M618,-708C618,-714 612,-720 606,-720"/>
<polyline style="fill:none;stroke:gray;" points="606,-720 23,-720 "/>
<path style="fill:none;stroke:gray;" d="M23,-720C17,-720 11,-714 11,-708"/>
<polyline style="fill:none;stroke:gray;" points="11,-708 11,-64 "/>
<path style="fill:none;stroke:gray;" d="M11,-64C11,-58 17,-52 23,-52"/>
<text text-anchor="middle" x="314" y="-706.1" style="font-family:Times New Roman;font-size:11.00;fill:gray;">Oktopus</text>
</g>
<!-- _Oktopus_IClassParser -->
<g id="node2" class="node"><title>_Oktopus_IClassParser</title>
<a xlink:href="_Oktopus_Engine.html" xlink:title="IClassParser" target="_parent">
<polygon style="fill:none;stroke:black;" points="311,-690 215,-690 215,-654 311,-654 311,-690"/>
<text text-anchor="middle" x="263" y="-669.1" style="font-family:Courier New;font-size:11.00;">IClassParser</text>
</a>
</g>
<!-- _Oktopus_Exception -->
<g id="node3" class="node"><title>_Oktopus_Exception</title>
<a xlink:href="_Oktopus_Engine.html" xlink:title="Exception" target="_parent">
<polygon style="fill:none;stroke:black;" points="301,-420 225,-420 225,-384 301,-384 301,-420"/>
<text text-anchor="middle" x="263" y="-399.1" style="font-family:Courier New;font-size:11.00;">Exception</text>
</a>
</g>
<!-- _Exception -->
<g id="node21" class="node"><title>_Exception</title>
<ellipse style="fill:none;stroke:black;" cx="61" cy="-26" rx="61.1496" ry="18"/>
<text text-anchor="middle" x="61" y="-21.9" style="font-family:Times New Roman;font-size:14.00;fill:gray;">\Exception</text>
</g>
<!-- _Oktopus_Exception&#45;&gt;_Exception -->
<g id="edge3" class="edge"><title>_Oktopus_Exception-&gt;_Exception</title>
<path style="fill:none;stroke:black;" d="M243,-384C228,-368 206,-345 194,-321 135,-210 206,-141 122,-48 120,-46 119,-45 117,-43"/>
<polygon style="fill:none;stroke:black;" points="118.441,-39.7969 108,-38 115.042,-45.916 118.441,-39.7969"/>
</g>
<!-- _Oktopus_ClassParserForPHP5_3 -->
<g id="node4" class="node"><title>_Oktopus_ClassParserForPHP5_3</title>
<a xlink:href="_Oktopus_Engine.html" xlink:title="ClassParserForPHP5_3" target="_parent">
<polygon style="fill:none;stroke:black;" points="582,-690 432,-690 432,-654 582,-654 582,-690"/>
<text text-anchor="middle" x="507" y="-669.1" style="font-family:Courier New;font-size:11.00;">ClassParserForPHP5_3</text>
</a>
</g>
<!-- _Oktopus_ClassParserForPHP5_3&#45;&gt;_Oktopus_IClassParser -->
<g id="edge13" class="edge"><title>_Oktopus_ClassParserForPHP5_3-&gt;_Oktopus_IClassParser</title>
<path style="fill:none;stroke:black;stroke-dasharray:1,5;" d="M431,-672C396,-672 355,-672 322,-672"/>
<polygon style="fill:none;stroke:black;" points="322,-668.5 312,-672 322,-675.5 322,-668.5"/>
</g>
<!-- _Oktopus_AutoloaderException -->
<g id="node5" class="node"><title>_Oktopus_AutoloaderException</title>
<a xlink:href="_Oktopus_Engine.html" xlink:title="AutoloaderException" target="_parent">
<polygon style="fill:none;stroke:black;" points="579,-474 435,-474 435,-438 579,-438 579,-474"/>
<text text-anchor="middle" x="507" y="-453.1" style="font-family:Courier New;font-size:11.00;">AutoloaderException</text>
</a>
</g>
<!-- _Oktopus_AutoloaderException&#45;&gt;_Oktopus_Exception -->
<g id="edge5" class="edge"><title>_Oktopus_AutoloaderException-&gt;_Oktopus_Exception</title>
<path style="fill:none;stroke:black;" d="M435,-440C395,-431 347,-420 312,-413"/>
<polygon style="fill:none;stroke:black;" points="312.492,-409.529 302,-411 311.119,-416.393 312.492,-409.529"/>
</g>
<!-- _Oktopus_Autoloader -->
<g id="node6" class="node"><title>_Oktopus_Autoloader</title>
<a xlink:href="_Oktopus_Engine.html" xlink:title="Autoloader" target="_parent">
<polygon style="fill:none;stroke:black;" points="549,-582 465,-582 465,-546 549,-546 549,-582"/>
<text text-anchor="middle" x="507" y="-561.1" style="font-family:Courier New;font-size:11.00;">Autoloader</text>
</a>
</g>
<!-- _Oktopus_Engine -->
<g id="node7" class="node"><title>_Oktopus_Engine</title>
<a xlink:href="_Oktopus_Engine.html" xlink:title="Engine" target="_parent">
<polygon style="fill:none;stroke:black;" points="535,-528 479,-528 479,-492 535,-492 535,-528"/>
<text text-anchor="middle" x="507" y="-507.1" style="font-family:Courier New;font-size:11.00;">Engine</text>
</a>
</g>
<!-- _Oktopus_ComponentDefinitionException -->
<g id="node8" class="node"><title>_Oktopus_ComponentDefinitionException</title>
<a xlink:href="_Oktopus_container_ComponentDefinition.class.html" xlink:title="ComponentDefinitionException" target="_parent">
<polygon style="fill:none;stroke:black;" points="609,-258 405,-258 405,-222 609,-222 609,-258"/>
<text text-anchor="middle" x="507" y="-237.1" style="font-family:Courier New;font-size:11.00;">ComponentDefinitionException</text>
</a>
</g>
<!-- _Oktopus_ComponentDefinitionException&#45;&gt;_Exception -->
<g id="edge7" class="edge"><title>_Oktopus_ComponentDefinitionException-&gt;_Exception</title>
<path style="fill:none;stroke:black;" d="M404,-223C360,-214 308,-202 263,-186"/>
</g>
<!-- _Oktopus_ComponentDefinition -->
<g id="node9" class="node"><title>_Oktopus_ComponentDefinition</title>
<a xlink:href="_Oktopus_container_ComponentDefinition.class.html" xlink:title="ComponentDefinition" target="_parent">
<polygon style="fill:none;stroke:black;" points="579,-420 435,-420 435,-384 579,-384 579,-420"/>
<text text-anchor="middle" x="507" y="-399.1" style="font-family:Courier New;font-size:11.00;">ComponentDefinition</text>
</a>
</g>
<!-- _Oktopus_ComponentReference -->
<g id="node10" class="node"><title>_Oktopus_ComponentReference</title>
<a xlink:href="_Oktopus_container_ComponentReference.class.html" xlink:title="ComponentReference" target="_parent">
<polygon style="fill:none;stroke:black;" points="576,-366 438,-366 438,-330 576,-330 576,-366"/>
<text text-anchor="middle" x="507" y="-345.1" style="font-family:Courier New;font-size:11.00;">ComponentReference</text>
</a>
</g>
<!-- _Oktopus_IContainer -->
<g id="node11" class="node"><title>_Oktopus_IContainer</title>
<a xlink:href="_Oktopus_container_Container.class.html" xlink:title="IContainer" target="_parent">
<polygon style="fill:none;stroke:black;" points="103,-609 19,-609 19,-573 103,-573 103,-609"/>
<text text-anchor="middle" x="61" y="-588.1" style="font-family:Courier New;font-size:11.00;">IContainer</text>
</a>
</g>
<!-- _Oktopus_IMutableContainer -->
<g id="node12" class="node"><title>_Oktopus_IMutableContainer</title>
<a xlink:href="_Oktopus_container_Container.class.html" xlink:title="IMutableContainer" target="_parent">
<polygon style="fill:none;stroke:black;" points="328,-582 198,-582 198,-546 328,-546 328,-582"/>
<text text-anchor="middle" x="263" y="-561.1" style="font-family:Courier New;font-size:11.00;">IMutableContainer</text>
</a>
</g>
<!-- _Oktopus_IMutableContainer&#45;&gt;_Oktopus_IContainer -->
<g id="edge9" class="edge"><title>_Oktopus_IMutableContainer-&gt;_Oktopus_IContainer</title>
<path style="fill:none;stroke:black;" d="M197,-573C170,-577 139,-581 113,-584"/>
<polygon style="fill:none;stroke:black;" points="112.602,-580.522 103,-585 113.299,-587.488 112.602,-580.522"/>
</g>
<!-- _Oktopus_ContainerException -->
<g id="node13" class="node"><title>_Oktopus_ContainerException</title>
<a xlink:href="_Oktopus_container_Container.class.html" xlink:title="ContainerException" target="_parent">
<polygon style="fill:none;stroke:black;" points="576,-150 438,-150 438,-114 576,-114 576,-150"/>
<text text-anchor="middle" x="507" y="-129.1" style="font-family:Courier New;font-size:11.00;">ContainerException</text>
</a>
</g>
<!-- _Oktopus_ContainerException&#45;&gt;_Exception -->
<g id="edge11" class="edge"><title>_Oktopus_ContainerException-&gt;_Exception</title>
<path style="fill:none;stroke:black;" d="M438,-149C369,-166 271,-189 263,-186"/>
<path style="fill:none;stroke:black;" d="M263,-186C180,-158 196,-95 122,-48 119,-46 116,-45 113,-43"/>
<polygon style="fill:none;stroke:black;" points="114.56,-39.8631 104,-39 111.717,-46.2598 114.56,-39.8631"/>
</g>
<!-- _Oktopus_Container -->
<g id="node14" class="node"><title>_Oktopus_Container</title>
<a xlink:href="_Oktopus_container_Container.class.html" xlink:title="Container" target="_parent">
<polygon style="fill:none;stroke:black;" points="545,-636 469,-636 469,-600 545,-600 545,-636"/>
<text text-anchor="middle" x="507" y="-615.1" style="font-family:Courier New;font-size:11.00;">Container</text>
</a>
</g>
<!-- _Oktopus_Container&#45;&gt;_Oktopus_IMutableContainer -->
<g id="edge15" class="edge"><title>_Oktopus_Container-&gt;_Oktopus_IMutableContainer</title>
<path style="fill:none;stroke:black;stroke-dasharray:1,5;" d="M468,-609C434,-602 381,-590 339,-580"/>
<polygon style="fill:none;stroke:black;" points="339.492,-576.529 329,-578 338.119,-583.393 339.492,-576.529"/>
</g>
<!-- _Oktopus_ContainerXMLLoader -->
<g id="node15" class="node"><title>_Oktopus_ContainerXMLLoader</title>
<a xlink:href="_Oktopus_container_ContainerXMLLoader.class.html" xlink:title="ContainerXMLLoader" target="_parent">
<polygon style="fill:none;stroke:black;" points="332,-636 194,-636 194,-600 332,-600 332,-636"/>
<text text-anchor="middle" x="263" y="-615.1" style="font-family:Courier New;font-size:11.00;">ContainerXMLLoader</text>
</a>
</g>
<!-- _Oktopus_ContainerXMLLoader&#45;&gt;_Oktopus_IContainer -->
<g id="edge17" class="edge"><title>_Oktopus_ContainerXMLLoader-&gt;_Oktopus_IContainer</title>
<path style="fill:none;stroke:black;stroke-dasharray:1,5;" d="M194,-609C168,-606 138,-601 113,-598"/>
<polygon style="fill:none;stroke:black;" points="113.299,-594.512 103,-597 112.602,-601.478 113.299,-594.512"/>
</g>
<!-- _Oktopus_Debug -->
<g id="node16" class="node"><title>_Oktopus_Debug</title>
<a xlink:href="_Oktopus_debug_Debug.class.html" xlink:title="Debug" target="_parent">
<polygon style="fill:none;stroke:black;" points="534,-204 480,-204 480,-168 534,-168 534,-204"/>
<text text-anchor="middle" x="507" y="-183.1" style="font-family:Courier New;font-size:11.00;">Debug</text>
</a>
</g>
<!-- _Oktopus_ITimer -->
<g id="node17" class="node"><title>_Oktopus_ITimer</title>
<a xlink:href="_Oktopus_timer_Timer.class.html" xlink:title="ITimer" target="_parent">
<polygon style="fill:none;stroke:black;" points="291,-312 235,-312 235,-276 291,-276 291,-312"/>
<text text-anchor="middle" x="263" y="-291.1" style="font-family:Courier New;font-size:11.00;">ITimer</text>
</a>
</g>
<!-- _Oktopus_Timer -->
<g id="node18" class="node"><title>_Oktopus_Timer</title>
<a xlink:href="_Oktopus_timer_Timer.class.html" xlink:title="Timer" target="_parent">
<polygon style="fill:none;stroke:black;" points="534,-312 480,-312 480,-276 534,-276 534,-312"/>
<text text-anchor="middle" x="507" y="-291.1" style="font-family:Courier New;font-size:11.00;">Timer</text>
</a>
</g>
<!-- _Oktopus_Timer&#45;&gt;_Oktopus_ITimer -->
<g id="edge19" class="edge"><title>_Oktopus_Timer-&gt;_Oktopus_ITimer</title>
<path style="fill:none;stroke:black;stroke-dasharray:1,5;" d="M480,-294C436,-294 352,-294 302,-294"/>
<polygon style="fill:none;stroke:black;" points="302,-290.5 292,-294 302,-297.5 302,-290.5"/>
</g>
<!-- _Oktopus_UTF8 -->
<g id="node19" class="node"><title>_Oktopus_UTF8</title>
<a xlink:href="_Oktopus_utf8_utf8.html" xlink:title="UTF8" target="_parent">
<polygon style="fill:none;stroke:black;" points="534,-96 480,-96 480,-60 534,-60 534,-96"/>
<text text-anchor="middle" x="507" y="-75.1" style="font-family:Courier New;font-size:11.00;">UTF8</text>
</a>
</g>
</g>
<script xlink:href="js/SVGPan.js"/></svg>
